<svg width="47" height="47" viewBox="0 0 47 47" fill="none" xmlns="http://www.w3.org/2000/svg">
<path d="M45.7133 18.0879C43.811 15.2684 40.7289 13.1941 37.1086 12.2965C33.4882 11.399 29.6085 11.7473 26.2767 13.2692V1.22244H20.7233V13.2692C17.3915 11.7473 13.5118 11.399 9.89141 12.2965C6.27107 13.1941 3.18903 15.2684 1.28669 18.0879C-4.26663 25.3159 9.61668 47 15.17 47C20.7233 47 20.7233 44.5907 23.5 44.5907C26.2767 44.5907 26.2767 47 31.83 47C37.3833 47 51.2666 25.3159 45.7133 18.0879ZM40.8541 26.2314C39.1326 32.1825 35.7451 37.6517 30.997 42.1813C30.4417 42.1813 29.803 41.9404 29.331 41.579C27.6806 40.4211 25.6224 39.7894 23.5 39.7894C21.3776 39.7894 19.3194 40.4211 17.669 41.579C17.197 41.9404 16.5583 42.1813 16.003 42.1813C11.2417 37.6669 7.85369 32.193 6.14585 26.2555C5.45169 24.4967 5.31286 22.5933 5.89595 20.7863C6.68627 19.5636 7.82794 18.5393 9.20984 17.8131C10.5917 17.0869 12.1668 16.6835 13.7817 16.6423C15.3366 16.6663 16.8638 16.9796 18.2521 17.5819L20.7233 18.6661H26.2767L28.7479 17.5819C30.1362 16.9796 31.6634 16.6663 33.2183 16.6423C36.4948 16.7145 39.4936 18.2806 41.104 20.7622C41.6871 22.5692 41.5483 24.4726 40.8541 26.2314ZM20.7233 6.04113C5.11849 13.4378 1.59213 3.10173 1.59213 3.10173C1.59213 3.10173 8.97805 -5.54782 20.7233 6.04113Z" fill="#424242"/>
</svg>
