<svg width="98" height="98" viewBox="0 0 98 98" fill="none" xmlns="http://www.w3.org/2000/svg">
<path d="M49 9.1875C59.5589 9.1875 69.6854 13.382 77.1517 20.8483C84.618 28.3146 88.8125 38.4411 88.8125 49C88.8125 59.5589 84.618 69.6854 77.1517 77.1517C69.6854 84.618 59.5589 88.8125 49 88.8125C38.4411 88.8125 28.3146 84.618 20.8483 77.1517C13.382 69.6854 9.1875 59.5589 9.1875 49C9.1875 38.4411 13.382 28.3146 20.8483 20.8483C28.3146 13.382 38.4411 9.1875 49 9.1875ZM41.8705 16.0659L49 20.825L56.1295 16.072C51.4305 15.0587 46.5695 15.0587 41.8705 16.072V16.0659ZM34.5634 18.5526C30.0944 20.6794 26.1468 23.7613 22.9994 27.5809L26.9622 40.4679L33.124 42.5197L45.9375 32.781V26.1415L34.5634 18.5526ZM18.669 34.3306C16.9758 37.8203 15.9022 41.5778 15.4962 45.4353L20.9169 41.6439L18.669 34.3306ZM15.533 52.8894C16.1455 58.1875 17.983 63.1181 20.7576 67.375H32.4196L36.309 63.4856L31.2681 48.3569L24.9961 46.2682L15.533 52.8832V52.8894ZM25.8842 73.5C28.3526 75.8398 31.1824 77.8059 34.2755 79.3065L31.7091 73.5H25.8904H25.8842ZM42.1768 81.9954C46.6784 82.9219 51.3216 82.9219 55.8233 81.9954L60.662 71.1174L56.9196 67.375H41.0804L37.3441 71.1112L42.1768 81.9954ZM63.7184 79.3065C66.7978 77.8084 69.6314 75.8505 72.1219 73.5H66.3031L63.7184 79.3065ZM77.2362 67.375C79.9313 63.2467 81.7443 58.4938 82.4058 53.3794L72.9487 46.2866L66.7319 48.3569L61.691 63.4856L65.5804 67.375H77.2362ZM82.5405 45.8272C82.1675 41.8 81.0677 37.8737 79.2943 34.2388L77.0464 41.7113L82.5405 45.8272ZM74.921 27.4829C71.7862 23.708 67.8674 20.6608 63.4366 18.5526L52.0625 26.1415V32.781L64.876 42.5197L71.0255 40.474L74.921 27.4829ZM37.289 47.04L42.0175 61.25H55.9825L60.711 47.0461L49 38.1465L37.289 47.0522V47.04Z" fill="#014FA1"/>
</svg>
