<svg width="84" height="94" viewBox="0 0 84 94" fill="none" xmlns="http://www.w3.org/2000/svg">
<path d="M48.0239 48.1391L48.0976 48.3534L48.1984 48.5563C53.1207 58.4713 61.6105 68.193 68.683 75.316C72.0359 78.6929 75.1243 81.5389 77.4579 83.6088C75.6343 84.3185 73.3593 85.1371 70.714 85.9568C63.3539 88.2377 53.2145 90.5 42 90.5C30.7855 90.5 20.6461 88.2377 13.286 85.9568C11.1461 85.2937 9.24861 84.6313 7.63631 84.0268C10.7509 82.043 14.8033 79.3495 18.996 76.2529C23.4461 72.9662 28.1222 69.1757 32.0149 65.2551C35.8323 61.4104 39.2268 57.1183 40.6561 52.7997L41.3056 50.8372L39.9005 49.321L33.3672 42.271L31.3259 40.0683L39.2844 34.7248L40.8333 33.6847V31.819V28.529C40.8333 26.7284 42.0801 25.2404 43.6316 24.8988C43.6328 24.8985 43.634 24.8983 43.6352 24.898L55.1526 22.409L55.1756 22.4041L55.1985 22.3988C56.7661 22.0379 58.4453 22.8645 59.1466 24.4476L59.2232 24.6205L59.318 24.7842L61.6047 28.7322L63.2592 31.5887L66.2075 30.104L69.9887 28.1999L70.0029 28.2278L60.6752 32.925H47.6933H42.7871L44.3839 37.5641L48.0239 48.1391ZM28.048 42.3296L27.6711 43.0816L23.3372 51.7273L14.0125 56.423L14.0038 56.4274C14.0038 56.4273 14.0037 56.4273 14.0037 56.4272C14.0025 56.4262 14.0012 56.4249 13.9997 56.423C13.9984 56.4212 13.9969 56.419 13.9955 56.4162L13.9914 56.4082C13.9912 56.4078 13.991 56.4073 13.9906 56.4058C13.9904 56.4051 13.9901 56.404 13.9898 56.4025C13.9894 56.4003 13.989 56.3974 13.9888 56.3936C13.9884 56.3882 13.9884 56.3823 13.9889 56.3763L22.2942 52.194L23.3323 51.6713L23.8514 50.6314L27.9488 42.4245C27.9724 42.4006 28.004 42.37 28.048 42.3296ZM47.8333 7.05C47.8333 9.04153 46.2502 10.6 44.3333 10.6C42.4164 10.6 40.8333 9.04153 40.8333 7.05C40.8333 5.05847 42.4164 3.5 44.3333 3.5C46.2502 3.5 47.8333 5.05847 47.8333 7.05ZM22.1667 21.15C22.1667 19.1585 23.7498 17.6 25.6667 17.6C27.5836 17.6 29.1667 19.1585 29.1667 21.15C29.1667 23.1415 27.5836 24.7 25.6667 24.7C23.7498 24.7 22.1667 23.1415 22.1667 21.15Z" stroke="#014FA1" stroke-width="7"/>
</svg>
