<svg width="87" height="87" viewBox="0 0 87 87" fill="none" xmlns="http://www.w3.org/2000/svg">
<path d="M86.152 12.448L74.5512 0.847984C74.0598 0.357271 73.4085 0.0591838 72.7159 0.00791707C72.0233 -0.0433496 71.3353 0.155608 70.777 0.568619C70.2187 0.981629 69.8271 1.58127 69.6735 2.25852C69.5199 2.93577 69.6144 3.64565 69.9399 4.25912L48.0361 26.1578C39.7742 21.8586 30.5226 22.2174 24.9179 27.8181C23.4389 29.3034 22.2803 31.0763 21.5138 33.0272C21.2785 33.5561 20.8945 34.0052 20.4085 34.3199C19.9226 34.6346 19.3557 34.8014 18.7768 34.7998C13.4875 34.9775 8.89436 36.8733 5.49026 40.2772C1.11096 44.6671 -0.730665 50.9674 0.262652 58.0253C1.22697 64.7787 4.73258 71.4668 10.1451 76.85C15.5576 82.2331 22.2316 85.753 28.9963 86.7172C30.2086 86.8984 31.4322 86.9929 32.6578 87C38.2117 87 43.1094 85.1041 46.7093 81.5045C50.1134 78.1006 52.0094 73.5077 52.187 68.2188C52.1864 67.6387 52.3548 67.071 52.6715 66.585C52.9883 66.0989 53.4397 65.7157 53.9707 65.4819C55.9219 64.716 57.6951 63.5574 59.1801 62.078C64.7811 56.4738 65.14 47.2155 60.8405 38.9614L82.7406 17.059C83.3541 17.3845 84.064 17.479 84.7413 17.3254C85.4186 17.1718 86.0183 16.7802 86.4313 16.2219C86.8444 15.6637 87.0434 14.9757 86.9921 14.2831C86.9408 13.5906 86.6427 12.9394 86.152 12.448ZM69.5991 21.9963L65.0023 17.3998L73.9494 8.44963L78.5498 13.0498L69.5991 21.9963ZM55.0981 57.9745C54.1737 58.895 53.0691 59.6145 51.8535 60.0879C50.2738 60.7388 48.918 61.836 47.9522 63.2453C46.9864 64.6547 46.4525 66.315 46.4156 68.0231C46.2851 71.8148 44.9656 75.0592 42.6345 77.4046C39.5748 80.4605 35.0215 81.7365 29.8157 80.9897C24.2835 80.2031 18.7478 77.2813 14.2307 72.7646C9.71367 68.2478 6.79172 62.7124 6.00504 57.206C5.27999 51.9969 6.53433 47.4475 9.59041 44.388C11.9359 42.0499 15.1805 40.7376 18.9725 40.5999C20.681 40.564 22.3418 40.0304 23.7514 39.0645C25.161 38.0987 26.2581 36.7425 26.9082 35.1623C27.3795 33.9404 28.0991 32.8295 29.0217 31.8998C31.012 29.9097 33.7345 28.9527 36.7725 28.9527C39.1624 28.9909 41.5205 29.5074 43.7076 30.4716L36.4281 37.7687C34.2551 38.008 32.1938 38.8563 30.482 40.2161C28.7702 41.5758 27.4775 43.3915 26.7528 45.454C26.0282 47.5164 25.9011 49.7416 26.3862 51.8732C26.8713 54.0047 27.9489 55.9558 29.4947 57.5015C31.0406 59.0473 32.9918 60.1248 35.1235 60.6099C37.2552 61.095 39.4805 60.9679 41.5431 60.2433C43.6057 59.5187 45.4215 58.226 46.7813 56.5143C48.1411 54.8026 48.9896 52.7415 49.2288 50.5686L56.5083 43.2896C58.872 48.8323 58.5312 54.5235 55.0981 57.9745ZM51.3279 35.688C52.0941 36.4586 52.812 37.2758 53.4776 38.1348L47.8875 43.7246C46.8211 41.7884 45.2271 40.1944 43.2907 39.1281L48.8808 33.5347C49.7338 34.2021 50.5449 34.9212 51.3097 35.688H51.3279ZM37.6969 43.4999C39.2353 43.4999 40.7106 44.1109 41.7984 45.1987C42.8862 46.2864 43.4973 47.7616 43.4973 49.2999C43.4973 50.447 43.1571 51.5684 42.5198 52.5222C41.8824 53.476 40.9765 54.2194 39.9166 54.6584C38.8568 55.0974 37.6905 55.2122 36.5653 54.9885C35.4402 54.7647 34.4066 54.2123 33.5954 53.4011C32.7842 52.59 32.2318 51.5565 32.008 50.4314C31.7842 49.3063 31.8991 48.1401 32.3381 47.0803C32.7771 46.0205 33.5205 45.1147 34.4744 44.4773C35.4283 43.84 36.5497 43.4999 37.6969 43.4999ZM55.4063 31.5917C54.6366 30.8246 53.8271 30.0985 52.981 29.4167L60.8985 21.4997L65.4989 26.0998L57.585 34.0096C56.9022 33.1655 56.1762 32.3572 55.4099 31.5881L55.4063 31.5917ZM31.0446 67.5482C31.5888 68.0919 31.8947 68.8294 31.8951 69.5987C31.8954 70.3679 31.5901 71.1057 31.0464 71.6499C30.5027 72.194 29.7651 72.4999 28.9958 72.5003C28.2265 72.5006 27.4887 72.1954 26.9445 71.6517L15.3437 60.0517C14.8 59.5075 14.4947 58.7697 14.495 58.0004C14.4954 57.2312 14.8013 56.4936 15.3455 55.95C15.8897 55.4063 16.6276 55.101 17.3968 55.1014C18.1661 55.1017 18.9037 55.4076 19.4474 55.9518L31.0446 67.5482Z" fill="#014FA1"/>
</svg>
