<svg width="47" height="47" viewBox="0 0 47 47" fill="none" xmlns="http://www.w3.org/2000/svg">
<path d="M23.5 8.8125C22.3314 8.8125 21.2106 8.34827 20.3843 7.52194C19.5579 6.69561 19.0937 5.57486 19.0937 4.40625C19.0937 3.23764 19.5579 2.11689 20.3843 1.29056C21.2106 0.464229 22.3314 0 23.5 0C24.6686 0 25.7893 0.464229 26.6157 1.29056C27.442 2.11689 27.9062 3.23764 27.9062 4.40625C27.9062 5.57486 27.442 6.69561 26.6157 7.52194C25.7893 8.34827 24.6686 8.8125 23.5 8.8125ZM32.239 8.07812C33.9006 8.07812 35.1123 9.25313 35.507 10.5475C36.2414 12.9525 38.4812 14.6967 41.125 14.6967C42.0429 14.6967 42.9058 14.4855 43.6677 14.1184C44.3654 13.7787 45.2008 13.8154 45.8709 14.2285C46.9357 14.8803 47.2845 16.2572 46.6603 17.3404L38.0406 32.3125H32.955L40.5742 19.0846C36.8564 18.8826 33.6619 16.707 32.0279 13.5951C30.0084 16.0553 26.9424 17.625 23.5091 17.625C20.0759 17.625 17.0099 16.0553 14.9904 13.5951C13.3564 16.7162 10.1619 18.8918 6.44411 19.0846L14.0449 32.3125H8.95934L0.339615 17.3404C-0.284603 16.2664 0.0642242 14.8895 1.12907 14.2377C1.79918 13.8246 2.63454 13.7879 3.33219 14.1275C4.10329 14.4947 4.957 14.7059 5.87497 14.7059C8.51872 14.7059 10.7586 12.9617 11.4929 10.5566C11.8877 9.25313 13.0994 8.07812 14.7609 8.07812C16.092 8.07812 17.1752 8.8584 17.7351 9.8498C18.8734 11.8693 21.0306 13.2188 23.5 13.2188C25.9693 13.2188 28.1265 11.8602 29.2648 9.8498C29.8248 8.8584 30.8988 8.07812 32.239 8.07812ZM34.7726 39.6562H12.2273L10.7035 42.5938H36.2873L34.7634 39.6562H34.7726ZM8.72985 36.8381C9.23473 35.865 10.2445 35.25 11.3369 35.25H35.6631C36.7646 35.25 37.7652 35.865 38.2701 36.8381L40.7027 41.5381C40.9781 42.0705 41.125 42.658 41.125 43.2547C41.125 45.3201 39.4543 47 37.3797 47H9.62028C7.55485 47 5.87497 45.3293 5.87497 43.2547C5.87497 42.658 6.02184 42.0705 6.29723 41.5381L8.72985 36.8381Z" fill="#424242"/>
</svg>
