<svg width="80" height="88" viewBox="0 0 80 88" fill="none" xmlns="http://www.w3.org/2000/svg">
<path d="M77.5 24.6375V63.3625C77.5002 63.8088 77.3809 64.2471 77.1545 64.6318C76.9281 65.0164 76.6028 65.3335 76.2125 65.55L41.2125 84.9916C40.8415 85.1974 40.4242 85.3053 40 85.3053C39.5758 85.3053 39.1585 85.1974 38.7875 84.9916L3.7875 65.55C3.39716 65.3335 3.07189 65.0164 2.84548 64.6318C2.61907 64.2471 2.49978 63.8088 2.5 63.3625V24.6375C2.50053 24.1918 2.62017 23.7544 2.84654 23.3705C3.07291 22.9867 3.39777 22.6703 3.7875 22.4541L38.7875 3.00829C39.1585 2.80254 39.5758 2.69458 40 2.69458C40.4242 2.69458 40.8415 2.80254 41.2125 3.00829L76.2125 22.4541C76.6022 22.6703 76.9271 22.9867 77.1535 23.3705C77.3798 23.7544 77.4995 24.1918 77.5 24.6375Z" stroke="#014FA1" stroke-width="5" stroke-linecap="round" stroke-linejoin="round"/>
<path d="M4.69995 24.3916L38.7833 43.325C39.1548 43.5315 39.5728 43.6398 39.9979 43.6398C40.4229 43.6398 40.8409 43.5315 41.2125 43.325L75.4166 24.325M40 81.5V44" stroke="#014FA1" stroke-width="5" stroke-linecap="round" stroke-linejoin="round"/>
</svg>
