<svg width="45" height="33" viewBox="0 0 45 33" fill="none" xmlns="http://www.w3.org/2000/svg">
<path d="M26.4166 12.3875V9.05834C27.4937 8.6014 28.5956 8.25869 29.7223 8.03022C30.8489 7.80175 32.0318 7.68751 33.2708 7.68751C34.1194 7.68751 34.9517 7.75279 35.7676 7.88334C36.5836 8.0139 37.3833 8.17709 38.1666 8.37293V11.5063C37.3833 11.2125 36.5914 10.9919 35.7911 10.8443C34.9908 10.6968 34.1507 10.6237 33.2708 10.625C32.0305 10.625 30.8392 10.7804 29.6968 11.0911C28.5544 11.4018 27.461 11.834 26.4166 12.3875ZM26.4166 23.1583V19.8292C27.4937 19.3722 28.5956 19.0295 29.7223 18.8011C30.8489 18.5726 32.0318 18.4583 33.2708 18.4583C34.1194 18.4583 34.9517 18.5236 35.7676 18.6542C36.5836 18.7847 37.3833 18.9479 38.1666 19.1438V22.2771C37.3833 21.9833 36.5914 21.7627 35.7911 21.6152C34.9908 21.4676 34.1507 21.3945 33.2708 21.3958C32.0305 21.3958 30.8392 21.5427 29.6968 21.8365C28.5544 22.1302 27.461 22.5708 26.4166 23.1583ZM26.4166 17.7729V14.4438C27.4937 13.9868 28.5956 13.6441 29.7223 13.4156C30.8489 13.1872 32.0318 13.0729 33.2708 13.0729C34.1194 13.0729 34.9517 13.1382 35.7676 13.2688C36.5836 13.3993 37.3833 13.5625 38.1666 13.7583V16.8917C37.3833 16.5979 36.5914 16.3773 35.7911 16.2298C34.9908 16.0822 34.1507 16.0091 33.2708 16.0104C32.0305 16.0104 30.8392 16.1658 29.6968 16.4765C28.5544 16.7872 27.461 17.2194 26.4166 17.7729ZM11.7291 24.3333C13.2631 24.3333 14.7567 24.505 16.2098 24.8484C17.6628 25.1917 19.1068 25.7055 20.5416 26.3896V7.10001C19.2034 6.31668 17.7836 5.72918 16.2822 5.33751C14.7808 4.94584 13.2631 4.75001 11.7291 4.75001C10.5541 4.75001 9.38692 4.86425 8.22759 5.09272C7.06825 5.32119 5.9507 5.6639 4.87492 6.12084V25.5083C6.01728 25.1167 7.15181 24.8229 8.2785 24.6271C9.4052 24.4313 10.5554 24.3333 11.7291 24.3333ZM24.4583 26.3896C25.8944 25.7042 27.3383 25.1898 28.7901 24.8464C30.2419 24.5031 31.7354 24.332 33.2708 24.3333C34.4458 24.3333 35.5966 24.4313 36.7233 24.6271C37.85 24.8229 38.9839 25.1167 40.1249 25.5083V6.12084C39.0478 5.6639 37.9296 5.32119 36.7703 5.09272C35.611 4.86425 34.4445 4.75001 33.2708 4.75001C31.7367 4.75001 30.219 4.94584 28.7176 5.33751C27.2162 5.72918 25.7964 6.31668 24.4583 7.10001V26.3896ZM22.4999 32.1667C20.9333 30.9264 19.236 29.9636 17.4083 29.2781C15.5805 28.5927 13.6874 28.25 11.7291 28.25C10.3583 28.25 9.01157 28.4295 7.68904 28.7885C6.36652 29.1476 5.10209 29.6535 3.89575 30.3063C3.21034 30.6653 2.54972 30.649 1.91392 30.2573C1.27811 29.8656 0.959558 29.2945 0.958252 28.5438V4.94584C0.958252 4.58682 1.04834 4.24411 1.2285 3.91772C1.40867 3.59133 1.67761 3.34654 2.03534 3.18334C3.53672 2.40001 5.10339 1.81251 6.73534 1.42084C8.36728 1.02918 10.0319 0.833344 11.7291 0.833344C13.6221 0.833344 15.4747 1.07814 17.2868 1.56772C19.0989 2.0573 20.8366 2.79168 22.4999 3.77084C24.1645 2.79168 25.9029 2.0573 27.715 1.56772C29.5271 1.07814 31.379 0.833344 33.2708 0.833344C34.968 0.833344 36.6326 1.02918 38.2645 1.42084C39.8964 1.81251 41.4631 2.40001 42.9645 3.18334C43.3235 3.34654 43.5931 3.59133 43.7733 3.91772C43.9535 4.24411 44.0429 4.58682 44.0416 4.94584V28.5438C44.0416 29.2945 43.7237 29.8656 43.0879 30.2573C42.4521 30.649 41.7908 30.6653 41.1041 30.3063C39.8965 29.6535 38.632 29.1476 37.3108 28.7885C35.9896 28.4295 34.6429 28.25 33.2708 28.25C31.3124 28.25 29.4194 28.5927 27.5916 29.2781C25.7638 29.9636 24.0666 30.9264 22.4999 32.1667Z" fill="#424242"/>
</svg>
