<svg width="1105" height="322" viewBox="0 0 1105 322" fill="none" xmlns="http://www.w3.org/2000/svg">
<path d="M978.459 4L82.8111 14.4778C82.8111 14.4778 43.4584 32.9386 24.0311 62.376C4.5473 91.8992 -0.396661 133.192 5.10203 168.151C9.26681 194.63 20.5442 224.532 34.9901 240.498C52.9611 260.36 81.8149 281.91 81.8149 281.91H929.641C929.641 281.91 999.96 284.016 1010.84 251.973C1019.19 227.354 1013.19 201.091 990.414 188.608C969.196 176.977 948.279 185.141 929.641 200.583C891.275 232.369 943.164 297.119 990.414 312.844C1012.2 320.094 1028.12 321.957 1049.19 312.844C1071.32 303.275 1101 220.041 1101 220.041" stroke="#014FA1" stroke-width="7" stroke-linecap="round" stroke-linejoin="round" stroke-dasharray="30 30"/>
</svg>
