<svg width="80" height="80" viewBox="0 0 80 80" fill="none" xmlns="http://www.w3.org/2000/svg">
<path d="M68.0307 29.4253L50.6394 12.0562L56.4706 6.23244C58.0392 4.66582 59.9666 3.8825 62.2527 3.8825C64.5388 3.8825 66.4648 4.66582 68.0307 6.23244L73.8619 12.0562C75.4305 13.6228 76.2148 15.5477 76.2148 17.8309C76.2148 20.1141 75.4305 22.0376 73.8619 23.6015L68.0307 29.4253ZM3.17136 76.8327V59.4636L21.5857 41.0728L0 19.3103L19.335 0L41.023 21.7625L50.6394 12.0562L68.0307 29.4253L58.4143 39.0294L80 60.7918L60.7673 80L38.977 58.3397L20.5627 76.8327H3.17136ZM27.4169 35.249L35.1918 27.484L30.2813 22.5798L25.3708 27.3819L19.6419 21.6603L24.4501 16.7561L19.2327 11.6475L11.5601 19.4125L27.4169 35.249ZM60.665 68.4547L68.4399 60.6897L63.2225 55.5811L58.4143 60.3832L52.5831 54.6616L57.4936 49.7574L52.4808 44.8531L44.7059 52.6181L60.665 68.4547ZM11.3555 68.659H17.0844L56.4706 29.4253L50.6394 23.6015L11.3555 62.9374V68.659Z" fill="#014FA1"/>
</svg>
