<svg width="85" height="85" viewBox="0 0 85 85" fill="none" xmlns="http://www.w3.org/2000/svg">
<path d="M42.4999 14.1667C50.0144 14.1667 57.2211 17.1518 62.5346 22.4653C67.8481 27.7788 70.8333 34.9855 70.8333 42.5V76.5C70.8333 78.0029 70.2362 79.4442 69.1735 80.5069C68.1108 81.5696 66.6695 82.1667 65.1666 82.1667H19.8333C18.3304 82.1667 16.889 81.5696 15.8263 80.5069C14.7636 79.4442 14.1666 78.0029 14.1666 76.5V42.5C14.1666 34.9855 17.1517 27.7788 22.4652 22.4653C27.7788 17.1518 34.9855 14.1667 42.4999 14.1667ZM42.4999 14.1667V0M22.6666 65.1667H62.3333M2.83325 45.3333V68M82.1666 45.3333V68M31.1666 53.8333C29.6637 53.8333 28.2224 53.2363 27.1596 52.1736C26.0969 51.1109 25.4999 49.6696 25.4999 48.1667C25.4999 46.6638 26.0969 45.2224 27.1596 44.1597C28.2224 43.097 29.6637 42.5 31.1666 42.5C32.6695 42.5 34.1108 43.097 35.1735 44.1597C36.2362 45.2224 36.8333 46.6638 36.8333 48.1667C36.8333 49.6696 36.2362 51.1109 35.1735 52.1736C34.1108 53.2363 32.6695 53.8333 31.1666 53.8333ZM53.8333 53.8333C52.3304 53.8333 50.889 53.2363 49.8263 52.1736C48.7636 51.1109 48.1666 49.6696 48.1666 48.1667C48.1666 46.6638 48.7636 45.2224 49.8263 44.1597C50.889 43.097 52.3304 42.5 53.8333 42.5C55.3361 42.5 56.7775 43.097 57.8402 44.1597C58.9029 45.2224 59.4999 46.6638 59.4999 48.1667C59.4999 49.6696 58.9029 51.1109 57.8402 52.1736C56.7775 53.2363 55.3361 53.8333 53.8333 53.8333Z" stroke="#014FA1" stroke-width="5"/>
</svg>
