<svg width="136" height="153" viewBox="0 0 136 153" fill="none" xmlns="http://www.w3.org/2000/svg">
<path d="M131.842 2.54402C130.471 1.61899 128.876 1.08159 127.225 0.988659C125.574 0.895728 123.928 1.25072 122.463 2.0161L122.391 2.03055L5.23447 65.1141C3.55883 65.9829 2.18768 67.3417 1.30366 69.0094C0.419642 70.6771 0.0647167 72.5746 0.286162 74.449C0.507607 76.3235 1.29491 78.086 2.5432 79.5018C3.7915 80.9176 5.44152 81.9195 7.2735 82.374L68.2716 97.4943C68.5668 97.5719 68.828 97.7453 69.0142 97.9872L106.639 148.335C107.682 149.747 109.108 150.83 110.747 151.459C112.386 152.087 114.171 152.233 115.89 151.88C116.15 151.827 116.417 151.774 116.67 151.689C118.484 151.171 120.096 150.11 121.288 148.648C122.48 147.186 123.195 145.393 123.337 143.512L135.965 11.0579L135.95 10.9864C136.089 9.3396 135.781 7.68585 135.058 6.19985C134.335 4.71385 133.224 3.45076 131.842 2.54402ZM128.006 10.358L115.408 142.793L115.422 142.865C115.414 143.138 115.316 143.401 115.144 143.613C114.971 143.825 114.734 143.975 114.468 144.039C114.208 144.133 113.923 144.138 113.66 144.051C113.397 143.964 113.171 143.791 113.018 143.56L75.9227 93.9585L100.954 56.2508C101.538 55.3708 101.749 54.2947 101.539 53.2594C101.33 52.224 100.718 51.3142 99.8382 50.73C98.9582 50.1458 97.8821 49.9351 96.8468 50.1443C95.8114 50.3535 94.9016 50.9654 94.3174 51.8455L69.3124 89.5479L9.19289 74.6223C8.92914 74.5587 8.69124 74.4157 8.51124 74.2127C8.33125 74.0097 8.21781 73.7564 8.18623 73.4869C8.15465 73.2174 8.20644 72.9448 8.33461 72.7056C8.46278 72.4665 8.66119 72.2724 8.90307 72.1495L8.97461 72.1351L126.125 9.0867C126.332 8.98082 126.563 8.93289 126.795 8.94801C127.027 8.96313 127.25 9.04073 127.442 9.17257C127.635 9.30068 127.79 9.47702 127.894 9.68407C127.998 9.8911 128.045 10.1216 128.032 10.3528L128.006 10.358Z" fill="#014FA1"/>
</svg>
