<svg width="39" height="33" viewBox="0 0 39 33" fill="none" xmlns="http://www.w3.org/2000/svg">
<path d="M35.6562 0.34375H3.34375C2.56468 0.34375 1.81751 0.653236 1.26662 1.20412C0.715736 1.75501 0.40625 2.50218 0.40625 3.28125V29.7188C0.40625 30.4978 0.715736 31.245 1.26662 31.7959C1.81751 32.3468 2.56468 32.6562 3.34375 32.6562H5.80207C6.08004 32.6563 6.35234 32.5775 6.58731 32.429C6.82227 32.2805 7.01027 32.0684 7.12945 31.8172C7.84367 30.3093 8.97128 29.0352 10.3812 28.1429C11.791 27.2507 13.4253 26.777 15.0938 26.777C16.7622 26.777 18.3965 27.2507 19.8063 28.1429C21.2162 29.0352 22.3438 30.3093 23.058 31.8172C23.1772 32.0684 23.3652 32.2805 23.6002 32.429C23.8352 32.5775 24.1075 32.6563 24.3854 32.6562H35.6562C36.4353 32.6562 37.1825 32.3468 37.7334 31.7959C38.2843 31.245 38.5938 30.4978 38.5938 29.7188V3.28125C38.5938 2.50218 38.2843 1.75501 37.7334 1.20412C37.1825 0.653236 36.4353 0.34375 35.6562 0.34375ZM10.6875 19.4375C10.6875 18.566 10.9459 17.7141 11.4301 16.9895C11.9143 16.2649 12.6024 15.7002 13.4076 15.3667C14.2127 15.0332 15.0986 14.9459 15.9534 15.1159C16.8081 15.2859 17.5932 15.7056 18.2094 16.3218C18.8257 16.938 19.2453 17.7232 19.4153 18.5779C19.5854 19.4326 19.4981 20.3186 19.1646 21.1237C18.8311 21.9288 18.2663 22.617 17.5417 23.1012C16.8171 23.5853 15.9652 23.8438 15.0938 23.8438C13.9251 23.8438 12.8044 23.3795 11.9781 22.5532C11.1517 21.7269 10.6875 20.6061 10.6875 19.4375ZM35.6562 29.7188H25.2703C24.0438 27.61 22.195 25.9324 19.9773 24.9159C21.0892 23.926 21.8739 22.6215 22.2274 21.1754C22.5809 19.7292 22.4866 18.2098 21.957 16.8186C21.4274 15.4273 20.4874 14.2298 19.2617 13.3849C18.036 12.54 16.5824 12.0876 15.0938 12.0876C13.6051 12.0876 12.1515 12.54 10.9258 13.3849C9.70012 14.2298 8.76014 15.4273 8.2305 16.8186C7.70085 18.2098 7.60655 19.7292 7.9601 21.1754C8.31364 22.6215 9.09834 23.926 10.2102 24.9159C7.99253 25.9324 6.14367 27.61 4.91715 29.7188H3.34375V3.28125H35.6562V29.7188ZM6.28125 10.625V7.6875C6.28125 7.29796 6.43599 6.92438 6.71144 6.64894C6.98688 6.37349 7.36046 6.21875 7.75 6.21875H31.25C31.6395 6.21875 32.0131 6.37349 32.2886 6.64894C32.564 6.92438 32.7188 7.29796 32.7188 7.6875V25.3125C32.7188 25.702 32.564 26.0756 32.2886 26.3511C32.0131 26.6265 31.6395 26.7812 31.25 26.7812H28.3125C27.923 26.7812 27.5494 26.6265 27.2739 26.3511C26.9985 26.0756 26.8438 25.702 26.8438 25.3125C26.8438 24.923 26.9985 24.5494 27.2739 24.2739C27.5494 23.9985 27.923 23.8438 28.3125 23.8438H29.7812V9.15625H9.21875V10.625C9.21875 11.0145 9.06401 11.3881 8.78856 11.6636C8.51312 11.939 8.13954 12.0938 7.75 12.0938C7.36046 12.0938 6.98688 11.939 6.71144 11.6636C6.43599 11.3881 6.28125 11.0145 6.28125 10.625Z" fill="#424242"/>
</svg>
