<svg width="317" height="483" viewBox="0 0 317 483" fill="none" xmlns="http://www.w3.org/2000/svg">
<path d="M110.333 14H62.1667C49.3921 14 37.1407 19.3264 28.1077 28.8074C19.0747 38.2884 14 51.1474 14 64.5556V418.444C14 431.853 19.0747 444.712 28.1077 454.193C37.1407 463.674 49.3921 469 62.1667 469H254.833C267.608 469 279.859 463.674 288.892 454.193C297.925 444.712 303 431.853 303 418.444V64.5556C303 51.1474 297.925 38.2884 288.892 28.8074C279.859 19.3264 267.608 14 254.833 14H206.667M110.333 14H206.667M110.333 14V39.2778M206.667 14V39.2778M110.333 39.2778C110.333 45.9819 112.871 52.4114 117.387 57.1519C121.904 61.8924 128.029 64.5556 134.417 64.5556H182.583C188.971 64.5556 195.096 61.8924 199.613 57.1519C204.129 52.4114 206.667 45.9819 206.667 39.2778M110.333 39.2778H158.5H206.667" stroke="#424242" stroke-width="27" stroke-linecap="round" stroke-linejoin="round"/>
</svg>
